<svg xmlns="http://www.w3.org/2000/svg" xmlns:xlink="http://www.w3.org/1999/xlink" xml:space="preserve" version="1.1" style="shape-rendering:geometricPrecision;text-rendering:geometricPrecision;image-rendering:optimizeQuality;" viewBox="0 0 333 416.25" x="0px" y="0px" fill-rule="evenodd" clip-rule="evenodd"><defs><style type="text/css">
   
    .fil0 {fill:black;fill-rule:nonzero}
   
  </style></defs><g><path class="fil0" d="M167 28c76,0 138,62 138,139 0,76 -62,138 -138,138 -77,0 -139,-62 -139,-138 0,-77 62,-139 139,-139zm-56 209l26 -32 -14 -45 -43 -18 -42 31 -2 -2c1,26 9,49 22,69l1 -3 52 0zm32 -28l-26 33 16 49 -3 1c12,4 24,6 37,6 12,0 25,-2 36,-6l-2 -1 16 -49 -27 -33 -47 0zm53 -4l26 32 52 0 1 3c14,-20 22,-43 23,-69l-3 2 -42 -31 -42 18 -15 45zm12 -52l43 -17 16 -50 3 0c-15,-19 -36,-34 -59,-43l1 3 -42 31 0 49 38 27zm-126 -17l43 17 38 -27 0 -49 -42 -30 1 -4c-23,9 -44,24 -59,43l3 0 16 50z"/></g><text x="0" y="348" fill="#000000" font-size="5px" font-weight="bold" font-family="'Helvetica Neue', Helvetica, Arial-Unicode, Arial, Sans-serif">Created by SKETCH ICON</text><text x="0" y="353" fill="#000000" font-size="5px" font-weight="bold" font-family="'Helvetica Neue', Helvetica, Arial-Unicode, Arial, Sans-serif">from the Noun Project</text></svg>